<?xml version="1.0" encoding="utf-8"?>
<!-- Svg Vector Icons : http://www.onlinewebfonts.com/icon -->
<!DOCTYPE svg PUBLIC "-//W3C//DTD SVG 1.1//EN" "http://www.w3.org/Graphics/SVG/1.1/DTD/svg11.dtd">
<svg version="1.1" xmlns="http://www.w3.org/2000/svg" xmlns:xlink="http://www.w3.org/1999/xlink" x="0px" y="0px" viewBox="0 0 1000 1000" enable-background="new 0 0 1000 1000" xml:space="preserve">
<metadata> Svg Vector Icons : http://www.onlinewebfonts.com/icon </metadata>
<g><g transform="translate(0.000000,511.000000) scale(0.100000,-0.100000)"><path d="M4747.1,4976.6c-361.6-79-711.3-353.7-871.3-685.6c-86.9-177.8-140.3-379.4-140.3-529.5c0-322.1,140.3-665.8,371.4-902.9c75.1-81,102.7-122.5,102.7-166c0-53.3-4-57.3-79-57.3h-79v-158.1v-158.1h79h79v-237.1V1845h316.1h316.1v-185.7v-185.7l-488-201.5l-490-201.5l-1248.7-11.8l-1250.7-9.9V341.4v-709.3H732.3H100v-948.4v-948.4h1422.6h1422.6v948.4v948.4h-632.3h-632.3v549.3v551.3l725.1,11.8c401.1,7.9,891.1,13.8,1092.6,13.8l365.5-2L4348,541l484.1-215.4l5.9-345.8l4-347.8h-632.3h-632.3v-948.4v-948.4H5000h1422.6v948.4v948.4h-632.3h-632.3l4,347.8l5.9,345.8L5652,541l484.1,215.4l365.5,2c201.5,0,691.5-5.9,1092.6-13.8l725.1-11.8V181.4v-549.3h-632.3h-632.3v-948.4v-948.4h632.3h632.3v-237.1v-237.1H6580.6H4841.9v-393.2v-393.2l-389.2-7.9l-391.2-5.9l-124.5-67.2c-140.3-77.1-217.3-156.1-294.4-304.3c-77.1-146.2-77.1-355.6,0-501.9c77.1-148.2,154.1-227.2,294.4-304.3l124.5-67.2H5000h938.5l124.5,67.2c140.3,77.1,217.3,156.1,294.4,304.3c75.1,146.2,75.1,355.6,0,501.9c-77.1,148.2-154.1,227.2-294.4,304.3l-124.5,67.2l-389.2,5.9l-391.2,7.9v235.1v235.1h1738.7h1738.7v395.2v395.2h632.3H9900v948.4v948.4h-632.3h-632.3v709.3v707.3l-1248.7,9.9l-1250.7,9.9l-488,203.5l-490,201.5v185.7V1845h316.1h316.1v237.1v237.1h79h79v158.1v158.1h-79c-75.1,0-79,4-79,61.3c0,41.5,17.8,75.1,59.3,110.6c85,69.2,225.3,272.7,296.4,424.8c69.2,150.2,118.5,355.6,118.5,509.8c0,448.5-298.3,918.8-713.3,1122.3C5278.6,4998.4,5019.8,5035.9,4747.1,4976.6z M5243,4660.5c351.7-90.9,614.5-363.5,687.6-715.2c31.6-154.1,11.9-403.1-41.5-545.3c-53.3-142.3-175.8-304.3-310.2-409l-104.7-83v-136.3v-136.3h-158.1h-158.1l2,331.9v330l81,59.3c300.3,219.3,306.3,529.5,13.8,762.7c-195.6,158.1-446.5,110.6-632.3-122.5c-162-201.5-106.7-462.3,136.3-640.2l81-59.3v-330l2-331.9h-158.1h-158.1v136.3V2908l-102.7,83c-225.2,175.8-347.7,405-365.5,681.7c-31.6,472.2,245,867.4,691.5,987.9C4885.4,4696.1,5102.7,4698,5243,4660.5z M5118.6,3860.3c25.7-25.7,39.5-65.2,39.5-118.5c0-53.4-13.8-92.9-39.5-118.5c-25.7-25.7-65.2-39.5-118.6-39.5c-104.7,0-158.1,53.3-158.1,158.1c0,53.3,13.8,92.9,39.5,118.5c25.7,25.7,65.2,39.5,118.5,39.5S5092.9,3886,5118.6,3860.3z M5474.2,2240.1v-79H5000h-474.2v79v79H5000h474.2V2240.1z M5355.6,1054.7c179.8-73.1,324-142.3,322.1-148.2c-2-7.9-156.1-81-339.8-164L5000,594.3l-331.9,146.2c-183.8,81-337.9,154.1-341.8,162c-7.9,17.8,624.4,288.5,673.8,288.5C5015.8,1191,5175.9,1129.7,5355.6,1054.7z M2629-1316.3v-632.2H1522.6H416.1v632.2v632.3h1106.5H2629V-1316.3z M6106.4-1316.3v-632.2H5000H3893.5v632.2v632.3H5000h1106.4V-1316.3z M9583.9-1316.3v-632.2H8477.4H7371v632.2v632.3h1106.5h1106.4V-1316.3z M5946.4-3880.9c114.6-57.3,150.1-124.5,150.1-280.6s-35.6-223.3-150.1-280.6c-61.3-31.6-148.2-35.6-946.4-35.6c-798.2,0-885.2,4-946.4,35.6c-114.6,57.3-150.2,124.5-150.2,280.6s35.6,223.3,150.2,280.6c61.3,31.6,148.2,35.6,946.4,35.6C5798.2-3845.3,5885.2-3849.3,5946.4-3880.9z"/><path d="M2680.4,4747.4c-86.9-199.6-112.6-167.9,280.6-330c191.7-79,355.6-142.3,361.6-142.3c23.7,0,122.5,258.8,104.7,276.6c-15.8,15.8-179.8,86.9-675.7,290.4C2737.7,4848.2,2710,4812.7,2680.4,4747.4z"/><path d="M6916.5,4707.9c-179.8-77.1-333.9-146.2-343.8-156.1c-17.8-17.8,81-276.6,104.7-276.6c5.9,0,169.9,63.2,361.6,142.3c391.2,160,365.5,132.4,280.6,324c-25.7,59.3-53.4,106.7-61.3,104.7C7248.5,4844.3,7096.3,4783,6916.5,4707.9z"/><path d="M2471,3741.8v-158.1h395.2h395.2v158.1v158.1h-395.2H2471V3741.8z"/><path d="M6738.7,3741.8v-158.1h395.2H7529v158.1v158.1h-395.2h-395.2V3741.8z"/><path d="M2955,3066c-183.7-77.1-337.9-142.3-341.8-144.2c-9.9-7.9,96.8-266.7,112.6-276.6c17.8-9.9,673.8,258.8,701.4,286.5c23.7,23.7-83,276.6-114.6,274.6C3300.8,3206.3,3140.8,3143.1,2955,3066z"/><path d="M6608.3,3079.9c-31.6-79-47.4-136.3-35.6-148.2c33.6-33.6,687.6-296.4,701.4-280.6c19.8,19.8,120.5,264.8,112.6,270.7c-13.8,9.9-693.5,286.5-707.3,286.5C6671.5,3208.3,6639.9,3151,6608.3,3079.9z"/></g></g>
</svg>